/* XPM */
static char *eidviewer_xpm[] = {
"32 32 5 1",
"  c None",
"a c Black",
"b c #FF0000",
"c c #FFFF00",
"d c #800000",
/* pixels */
"                d               ",
"               ddddd            ",
"     dd       ddddddd           ",
"   dddddddddddddddddddddd       ",
"  dddddddddddddddddddddddd      ",
"ddddddddddddddddddddddddddd     ",
"ddddddddddddddddddddddddddd     ",
"dddddddddddddddddddddddddd      ",
"ddddddddddddddddacccacdddd      ",
" ddddddddddddddcacccaaadddd     ",
"  dd ddddddddddccaccaccddddd    ",
"     ddddddddddcaaaaaacddddddd  ",
"      dddddddddacaccacadddddd   ",
"        ddddddddcaccacddddddddd ",
"         dddddddddddddddddddddd ",
"            ddddddddddddddddddd ",
"             ddddddddddddddddd  ",
"             dddddddddddddddd   ",
"             ddddddddddddddd    ",
"             dddd dddddddddd    ",
"             ddd  dddddddddd    ",
"                  dddddddddd    ",
"                  ddddddddddd   ",
"                   dddddddddd   ",
"aaaaccccbbbb           dddddd   ",
"aaaaccccbbbb           ddddd    ",
"aaaaccccbbbb            ddd     ",
"aaaaccccbbbb                    ",
"aaaaccccbbbb                    ",
"aaaaccccbbbb                    ",
"aaaaccccbbbb                    ",
"aaaaccccbbbb                    "};

